<svg id="Layer_1" data-name="Layer 1" xmlns="http://www.w3.org/2000/svg" viewBox="0 0 125 125"><defs><style>.cls-1{fill:#f2f2f2;}</style></defs><title>codepen</title><path class="cls-1" d="M84.72,52.19,64.12,38.56a3.89,3.89,0,0,0-4.37.06L40.21,52.23a3.94,3.94,0,0,0-1.71,3.19V70.08a3.92,3.92,0,0,0,1.78,3.23L60.17,86.44a3.9,3.9,0,0,0,4.29,0L84.73,73.06a3.91,3.91,0,0,0,1.77-3.23V55.43A3.92,3.92,0,0,0,84.72,52.19Zm-5.48,2.23-7.47,5-7-5.09,0-10ZM59.58,44.32v9.81l-7.17,5-7.17-4.8ZM43.3,59.2l4.63,3.11L43.3,65.57ZM59.79,80.12,45.31,70.43l7.21-5.05,7.27,4.86ZM62.31,65.8,57,62.23,61.69,59l5.47,3.59ZM64.8,80.13V70.22l6.94-4.63,7.47,4.9Zm16.49-14.4L76.36,62.5l4.93-3.3Z"/></svg>