<svg id="Layer_1" data-name="Layer 1" xmlns="http://www.w3.org/2000/svg" viewBox="0 0 125 125"><defs><style>.cls-1{fill:#f2f2f2;}</style></defs><title>css</title><g id="Layer_1-2" data-name="Layer_1"><path class="cls-1" d="M80,81.35l3.78-42.29,0-.55H41.22l0,.55L45,81.35l0,.35.34.09,16.92,4.7h.27l17-4.71.34-.09,0-.35ZM62.53,47.86H74.9l-.37,4.33-12.2,5.42.21,1H74l-1.32,15.1L62.49,76.51,52.32,73.69l-.65-7.23h4.19l.34,3.67,0,.36.34.09,5.83,1.55h.27l5.76-1.6.34-.1,0-.35.58-6.77,0-.55H51.33L51,58.4l11.78-5,.84-.36-.2-1h-13L50,47.86H62.53Z"/></g></svg>