<svg id="Layer_1" data-name="Layer 1" xmlns="http://www.w3.org/2000/svg" viewBox="0 0 125 125"><defs><style>.cls-1{fill:#f2f2f2;}</style></defs><title>github</title><g id="Layer_2" data-name="Layer 2"><path class="cls-1" d="M70.13,86A24.05,24.05,0,1,0,55,86c1.21.2,1.61-.5,1.61-1.21V82.08a1.22,1.22,0,0,0-1.41-1.21c-5.52.6-6.73-3.41-6.73-3.41-1.1-2.81-2.71-3.51-2.71-3.51-2.21-1.51.2-1.51.2-1.51a5.24,5.24,0,0,1,3.72,2.51c1.81,3.21,4.72,2.81,6.33,2.31a1.23,1.23,0,0,0,.8-.9,3.6,3.6,0,0,1,.4-1.1,1.22,1.22,0,0,0-.9-1.71c-4.72-.9-9-3.51-9-11.65a9,9,0,0,1,1.71-5.52,2.4,2.4,0,0,0,.4-2,7.7,7.7,0,0,1,0-3.41,2.19,2.19,0,0,1,2.81-1.71,17.88,17.88,0,0,1,3.51,1.71,2.2,2.2,0,0,0,1.91.3,20.48,20.48,0,0,1,4.92-.5,26.37,26.37,0,0,1,4.92.5,2.45,2.45,0,0,0,1.91-.3,11.07,11.07,0,0,1,3.41-1.61,2.25,2.25,0,0,1,2.91,1.81,12,12,0,0,1,0,3.31,2.83,2.83,0,0,0,.4,2A9.25,9.25,0,0,1,77.76,62c0,8.13-4.32,10.74-9,11.65a1.22,1.22,0,0,0-.9,1.71,6.71,6.71,0,0,1,.6,3V85C68.42,85.49,68.93,86.2,70.13,86Z"/></g></svg>