<svg id="Layer_1" data-name="Layer 1" xmlns="http://www.w3.org/2000/svg" viewBox="0 0 125 125"><defs><style>.cls-1{fill:#f2f2f2;}</style></defs><title>google</title><g id="Layer_2" data-name="Layer 2"><path class="cls-1" d="M63.9,86.46c12.78-.8,22.57-11.79,22.57-24.57a4.69,4.69,0,0,0-4.69-4.69H64.6a2.11,2.11,0,0,0-2.1,2.1v6.39a2.11,2.11,0,0,0,2.1,2.1h8.09a1.12,1.12,0,0,1,1,1.7A13.52,13.52,0,0,1,60.4,75.67,13.25,13.25,0,0,1,49,64,13.35,13.35,0,0,1,68.79,50.8a2.57,2.57,0,0,0,3-.4l4.29-4.19a2.47,2.47,0,0,0-.4-3.8,24.69,24.69,0,0,0-14.18-3.9,24,24,0,1,0,2.4,47.94Z"/></g></svg>