<svg id="Layer_1" data-name="Layer 1" xmlns="http://www.w3.org/2000/svg" viewBox="0 0 125 125"><defs><style>.cls-1{fill:#f2f2f2;}</style></defs><title>html</title><path class="cls-1" d="M41.45,40.06,44.57,80a1.54,1.54,0,0,0,1,1.3L62,86.45a2.14,2.14,0,0,0,.91,0l16.44-5.2a1.54,1.54,0,0,0,1-1.3l3.12-39.89A1.63,1.63,0,0,0,82,38.5H42.88A1.43,1.43,0,0,0,41.45,40.06Zm34,12.41H55.1l.58,5.65H75L73.74,74.24,62.44,77.87,51.13,74.3l-.65-8.45h5.91V70l6.17,1.69L68.74,70l.45-6.56H50.29L49.05,47.34H75.89Z"/></svg>