<svg id="Layer_1" data-name="Layer 1" xmlns="http://www.w3.org/2000/svg" viewBox="0 0 125 125"><defs><style>.cls-1{fill:#f2f2f2;}</style></defs><title>javascript</title><path class="cls-1" d="M38.5,38.5v48h48v-48ZM64.64,75.94c0,4.67-2.74,6.8-6.74,6.8a7,7,0,0,1-6.77-4.12l3.67-2.22c.71,1.26,1.35,2.32,2.9,2.32s2.42-.58,2.42-2.83V60.54h4.51Zm10.66,6.8c-4.19,0-6.9-2-8.22-4.61L70.74,76a4.91,4.91,0,0,0,4.45,2.74c1.87,0,3.06-.93,3.06-2.22,0-1.55-1.23-2.09-3.28-3L73.84,73c-3.25-1.39-5.42-3.12-5.42-6.8,0-3.38,2.58-6,6.61-6a6.67,6.67,0,0,1,6.42,3.61l-3.51,2.26A3.07,3.07,0,0,0,75,64.22a2,2,0,0,0-2.16,1.93c0,1.35.84,1.9,2.77,2.74l1.13.48c3.83,1.64,6,3.32,6,7.09C82.77,80.52,79.58,82.74,75.3,82.74Z"/></svg>