<svg id="Layer_1" data-name="Layer 1" xmlns="http://www.w3.org/2000/svg" viewBox="0 0 125 125"><defs><style>.cls-1{fill:#f2f2f2;}</style></defs><title>slack</title><g id="Layer_2" data-name="Layer 2"><path class="cls-1" d="M59.84,65.07a1.57,1.57,0,0,0,2.06,1L65.16,65a1.57,1.57,0,0,0,1-2.06l-1-3a1.57,1.57,0,0,0-2.06-1l-3.26,1a1.57,1.57,0,0,0-1,2.06Z"/><path class="cls-1" d="M69.1,84.53c16.46-5,20.32-12.09,15.43-28.63S72.36,35.58,55.9,40.47,35.58,52.64,40.47,69.1,52.64,89.42,69.1,84.53ZM49,58.39l1.8-.6a1.24,1.24,0,0,0,.77-1.63l-.6-1.89A2.48,2.48,0,0,1,52,51.19a2.52,2.52,0,0,1,3.6,1.37l.6,1.89a1.37,1.37,0,0,0,1.8.86L61.81,54a1.37,1.37,0,0,0,.86-1.8l-.6-1.71a2.48,2.48,0,0,1,1.11-3.09,2.52,2.52,0,0,1,3.6,1.37l.69,2a1.24,1.24,0,0,0,1.63.77l1.8-.6A2.48,2.48,0,0,1,74,52a2.52,2.52,0,0,1-1.37,3.6l-1.8.6A1.37,1.37,0,0,0,70,58l1.2,3.51a1.37,1.37,0,0,0,1.8.86l1.8-.6A2.47,2.47,0,0,1,78,64.13a2.57,2.57,0,0,1-1.8,2.4l-1.8.6a1.24,1.24,0,0,0-.77,1.63l.6,1.89a2.52,2.52,0,0,1-.86,2.91,2.77,2.77,0,0,1-1.54.51,2.47,2.47,0,0,1-2.31-1.71l-.6-1.89a1.37,1.37,0,0,0-1.8-.86L63.36,70.9a1.37,1.37,0,0,0-.86,1.8l.6,1.71a2.58,2.58,0,0,1-1.46,3.26,3.65,3.65,0,0,1-.94.17,2.47,2.47,0,0,1-2.31-1.71l-.69-2a1.24,1.24,0,0,0-1.63-.77l-1.89.6a1.48,1.48,0,0,1-.86.09A2.38,2.38,0,0,1,51,72.19a2.56,2.56,0,0,1,1.8-3l1.63-.51a1.37,1.37,0,0,0,.86-1.8l-1.2-3.51a1.37,1.37,0,0,0-1.8-.86l-1.8.6a1.48,1.48,0,0,1-.86.09,2.38,2.38,0,0,1-2.31-1.89A2.33,2.33,0,0,1,49,58.39Z"/></g></svg>