<svg id="Layer_1" data-name="Layer 1" xmlns="http://www.w3.org/2000/svg" viewBox="0 0 125 125"><defs><style>.cls-1{fill:#f2f2f2;}</style></defs><title>udacity</title><g id="_80-mark-white" data-name="80-mark-white"><path id="mark" class="cls-1" d="M54.46,38.5l-16,9.24V68.86A17.57,17.57,0,0,0,56,86.5a18.43,18.43,0,0,0,8.88-2.28l13-7.44A16.1,16.1,0,0,0,86.5,62.5V40.42l-3.12-1.8L69.7,45.94V69a23.3,23.3,0,0,1-.24,2.88,17,17,0,0,1-.84,2.64l-.36.72a17.12,17.12,0,0,1-5-2.16,12,12,0,0,1-3.48-3.48,19.42,19.42,0,0,1-1.2-2.16,8,8,0,0,1-.72-2.4,17.72,17.72,0,0,1-.12-2.52V40.42Zm7.8,43.44a22.09,22.09,0,0,1-3,1.08,10.74,10.74,0,0,1-2.76.24,11.83,11.83,0,0,1-2.88-.36A17,17,0,0,1,51,82.06a15.37,15.37,0,0,1-2.4-1.32A11.55,11.55,0,0,1,44.5,76.9a15.37,15.37,0,0,1-1.32-2.4,18.55,18.55,0,0,1-.84-2.76,11.68,11.68,0,0,1-.24-2.88V49.54l12-7.32V62.5A16.31,16.31,0,0,0,66.94,78.22a3.23,3.23,0,0,1-.84,1,11.48,11.48,0,0,1-3.84,2.76Zm20.4-16.8a14,14,0,0,1-.72,2.4,19.41,19.41,0,0,1-1.2,2.16,12.5,12.5,0,0,1-3.84,3.6A16.41,16.41,0,0,1,72.1,75a16.71,16.71,0,0,0,1.2-6V47.74l9.6-5.52V62.5A9.41,9.41,0,0,1,82.66,65.14Z"/></g></svg>